<svg width="1440" height="680" viewBox="0 0 1440 680" fill="none" xmlns="http://www.w3.org/2000/svg">
<g clip-path="url(#clip0_1606_1649)">
<g filter="url(#filter0_d_1606_1649)">
<path d="M1440 0H0V680H1440V0Z" fill="url(#paint0_linear_1606_1649)" shape-rendering="crispEdges"/>
</g>
<g filter="url(#filter1_f_1606_1649)">
<path d="M922.5 549C1295.57 549 1598 251.493 1598 -115.5C1598 -482.493 1295.57 -780 922.5 -780C549.432 -780 247 -482.493 247 -115.5C247 251.493 549.432 549 922.5 549Z" fill="url(#paint1_linear_1606_1649)"/>
</g>
<g filter="url(#filter2_f_1606_1649)">
<path d="M193.5 584C434.572 584 630 453.267 630 292C630 130.733 434.572 0 193.5 0C-47.5723 0 -243 130.733 -243 292C-243 453.267 -47.5723 584 193.5 584Z" fill="url(#paint2_linear_1606_1649)"/>
</g>
<g filter="url(#filter3_f_1606_1649)">
<path d="M1768 632.035C1768 712.649 1348.94 778 832 778C315.062 778 -104 712.649 -104 632.035C-104 551.42 627 503.932 855.5 458C1084 412.069 1667.15 595.408 1768 632.035Z" fill="url(#paint3_linear_1606_1649)"/>
</g>
</g>
<defs>
<filter id="filter0_d_1606_1649" x="-4" y="0" width="1448" height="688" filterUnits="userSpaceOnUse" color-interpolation-filters="sRGB">
<feFlood flood-opacity="0" result="BackgroundImageFix"/>
<feColorMatrix in="SourceAlpha" type="matrix" values="0 0 0 0 0 0 0 0 0 0 0 0 0 0 0 0 0 0 127 0" result="hardAlpha"/>
<feOffset dy="4"/>
<feGaussianBlur stdDeviation="2"/>
<feComposite in2="hardAlpha" operator="out"/>
<feColorMatrix type="matrix" values="0 0 0 0 0 0 0 0 0 0 0 0 0 0 0 0 0 0 0.25 0"/>
<feBlend mode="normal" in2="BackgroundImageFix" result="effect1_dropShadow_1606_1649"/>
<feBlend mode="normal" in="SourceGraphic" in2="effect1_dropShadow_1606_1649" result="shape"/>
</filter>
<filter id="filter1_f_1606_1649" x="67" y="-960" width="1711" height="1689" filterUnits="userSpaceOnUse" color-interpolation-filters="sRGB">
<feFlood flood-opacity="0" result="BackgroundImageFix"/>
<feBlend mode="normal" in="SourceGraphic" in2="BackgroundImageFix" result="shape"/>
<feGaussianBlur stdDeviation="90" result="effect1_foregroundBlur_1606_1649"/>
</filter>
<filter id="filter2_f_1606_1649" x="-383" y="-140" width="1153" height="864" filterUnits="userSpaceOnUse" color-interpolation-filters="sRGB">
<feFlood flood-opacity="0" result="BackgroundImageFix"/>
<feBlend mode="normal" in="SourceGraphic" in2="BackgroundImageFix" result="shape"/>
<feGaussianBlur stdDeviation="70" result="effect1_foregroundBlur_1606_1649"/>
</filter>
<filter id="filter3_f_1606_1649" x="-304" y="250.665" width="2272" height="727.335" filterUnits="userSpaceOnUse" color-interpolation-filters="sRGB">
<feFlood flood-opacity="0" result="BackgroundImageFix"/>
<feBlend mode="normal" in="SourceGraphic" in2="BackgroundImageFix" result="shape"/>
<feGaussianBlur stdDeviation="100" result="effect1_foregroundBlur_1606_1649"/>
</filter>
<linearGradient id="paint0_linear_1606_1649" x1="720" y1="0" x2="720" y2="680" gradientUnits="userSpaceOnUse">
<stop stop-color="#121212"/>
<stop offset="1" stop-color="#121212" stop-opacity="0"/>
</linearGradient>
<linearGradient id="paint1_linear_1606_1649" x1="1413" y1="39.9998" x2="544.5" y2="615.5" gradientUnits="userSpaceOnUse">
<stop offset="0.0182865" stop-color="#6CBDC3"/>
<stop offset="0.257817" stop-color="#1A9299"/>
<stop offset="0.613832" stop-color="#105759"/>
</linearGradient>
<linearGradient id="paint2_linear_1606_1649" x1="193.5" y1="0" x2="193.5" y2="584" gradientUnits="userSpaceOnUse">
<stop offset="0.109375" stop-color="#332B80"/>
<stop offset="0.536458" stop-color="#201D40" stop-opacity="0.849672"/>
<stop offset="0.932292" stop-color="#121212" stop-opacity="0.88"/>
</linearGradient>
<linearGradient id="paint3_linear_1606_1649" x1="832" y1="370.5" x2="832" y2="778" gradientUnits="userSpaceOnUse">
<stop stop-color="#C4A4CC"/>
<stop offset="0.719055" stop-color="#121212"/>
</linearGradient>
<clipPath id="clip0_1606_1649">
<rect width="1440" height="680" fill="white"/>
</clipPath>
</defs>
</svg>
